#!OML:ASF H:\BreakDance\Project 1\Capture day 1\Session 1\Male.ASF
:FULLY-SPECIFIED
:DEGREES
270
root 21.6105 15.2653 -0.642655 19.054 -62.9522 -16.621
lowerback 0.554899 -2.62498 4.55172
upperback 2.72711 -3.60164 1.3457
thorax 2.30448 -1.73072 -1.20696
lowerneck 2.87447 -5.15027 -3.21248
upperneck -15.3782 -6.32942 8.66694
head -4.66491 -3.57387 3.5116
rclavicle -9.24349e-015 4.37326e-015
rhumerus -17.8873 13.0413 -92.6922
rradius 47.1373
rwrist 13.3996
rhand -31.4694 -17.0199
rfingers 7.12502
rthumb -4.73643 -46.947
lclavicle -9.24349e-015 4.37326e-015
lhumerus -1.4003 -29.3139 83.2318
lradius 47.2972
lwrist 1.73596
lhand -26.3308 -31.5868
lfingers 7.12502
lthumb 0.226236 -1.60722
rfemur -32.0308 -7.72023 18.971
rtibia 60.5651
rfoot -21.7657 13.861
rtoes -16.4722
lfemur -30.6093 6.65338 -16.2558
ltibia 85.0038
lfoot -19.2989 -2.66417
ltoes -36.581
271
root 21.6305 15.3398 -0.591356 18.9714 -63.4099 -16.4289
lowerback 0.450292 -2.68987 4.46626
upperback 2.67235 -3.69025 1.33411
thorax 2.30615 -1.77679 -1.17597
lowerneck 2.76338 -4.95144 -3.03404
upperneck -15.2188 -6.07997 8.41746
head -4.62849 -3.44087 3.38837
rclavicle -2.10712e-014 3.89618e-014
rhumerus -18.0695 12.5018 -93.1308
rradius 46.0257
rwrist 12.5602
rhand -30.8832 -17.959
rfingers 7.12502
rthumb -4.1704 -47.8979
lclavicle -2.10712e-014 3.89618e-014
lhumerus -1.67658 -29.2629 83.6002
lradius 45.9313
lwrist 2.21673
lhand -26.2718 -31.0946
lfingers 7.12502
lthumb 0.283247 -1.11503
rfemur -31.5644 -7.16329 18.577
rtibia 59.4304
rfoot -21.1649 13.7935
rtoes -16.7269
lfemur -30.2818 6.63868 -15.8179
ltibia 84.1854
lfoot -18.6474 -2.17203
ltoes -36.2995
272
root 21.6514 15.4265 -0.536042 18.7918 -63.8535 -16.1205
lowerback 0.361393 -2.75339 4.34916
upperback 2.59696 -3.77372 1.2982
thorax 2.27838 -1.82125 -1.15103
lowerneck 2.66909 -4.76151 -2.83561
upperneck -15.0483 -5.84362 8.14962
head -4.59097 -3.31416 3.25713
rclavicle 2.05742e-014 -6.75868e-015
rhumerus -18.3724 11.9398 -93.546
rradius 44.8611
rwrist 11.7069
rhand -30.3599 -18.9302
rfingers 7.12502
rthumb -3.66502 -48.8785
lclavicle 2.05742e-014 -6.75868e-015
lhumerus -2.10212 -29.2716 84.0575
lradius 44.5292
lwrist 2.70348
lhand -26.057 -30.6078
lfingers 7.12502
lthumb 0.490667 -0.628579
rfemur -31.0195 -6.5267 18.1212
rtibia 58.1409
rfoot -20.4388 13.665
rtoes -16.5664
lfemur -29.8897 6.56806 -15.4198
ltibia 83.1508
lfoot -17.9613 -1.68952
ltoes -35.5808
273
root 21.6731 15.5244 -0.476793 18.571 -64.2957 -15.7593
lowerback 0.292085 -2.80836 4.22663
upperback 2.50193 -3.84309 1.24754
thorax 2.2196 -1.85926 -1.13643
lowerneck 2.57829 -4.58054 -2.63676
upperneck -14.853 -5.62067 7.87473
head -4.54477 -3.19305 3.12372
rclavicle -5.06901e-015 1.03368e-014
rhumerus -18.7844 11.3281 -93.9198
rradius 43.6369
rwrist 10.9175
rhand -29.9531 -19.731
rfingers 7.12502
rthumb -3.27221 -49.6856
lclavicle -5.06901e-015 1.03368e-014
lhumerus -2.66873 -29.3299 84.5999
lradius 43.1167
lwrist 3.22734
lhand -25.6553 -30.1439
lfingers 7.12502
lthumb 0.878692 -0.165979
rfemur -30.4076 -5.78874 17.6292
rtibia 56.7189
rfoot -19.5833 13.4745
rtoes -16.125
lfemur -29.4369 6.4624 -15.0398
ltibia 81.9062
lfoot -17.2679 -1.26089
ltoes -34.4095
274
root 21.6958 15.6321 -0.413663 18.3657 -64.7365 -15.4051
lowerback 0.239274 -2.85172 4.11991
upperback 2.3873 -3.89533 1.19545
thorax 2.13128 -1.88903 -1.13033
lowerneck 2.50125 -4.40458 -2.47891
upperneck -14.6296 -5.40362 7.63278
head -4.48846 -3.07412 3.00724
rclavicle -8.31914e-014 2.74323e-014
rhumerus -19.2922 10.6661 -94.2324
rradius 42.3557
rwrist 10.2184
rhand -29.649 -20.2729
rfingers 7.12502
rthumb -2.97845 -50.2319
lclavicle -8.31914e-014 2.74323e-014
lhumerus -3.37672 -29.4348 85.2269
lradius 41.7215
lwrist 3.79275
lhand -25.0969 -29.6975
lfingers 7.12502
lthumb 1.41797 0.277562
rfemur -29.7496 -4.94281 17.1301
rtibia 55.1944
rfoot -18.6037 13.2142
rtoes -15.6097
lfemur -28.9333 6.32437 -14.6534
ltibia 80.4637
lfoot -16.5728 -0.779368
ltoes -32.9635
